# Blender v2.93.0 OBJ File: ''
# www.blender.org
o Sphere
v 0.000000 0.923880 -0.382683
v 0.000000 0.707107 -0.707107
v 0.000000 0.382683 -0.923880
v 0.000000 -0.000000 -1.000000
v 0.000000 -0.382683 -0.923880
v 0.000000 -0.707107 -0.707107
v 0.000000 -0.923880 -0.382683
v 0.270598 0.923880 -0.270598
v 0.500000 0.707107 -0.500000
v 0.653282 0.382683 -0.653281
v 0.707107 -0.000000 -0.707107
v 0.653282 -0.382683 -0.653282
v 0.500000 -0.707107 -0.500000
v 0.270598 -0.923880 -0.270598
v 0.382684 0.923880 0.000000
v 0.707107 0.707107 0.000000
v 0.923880 0.382683 0.000000
v 1.000000 -0.000000 0.000000
v 0.923880 -0.382683 0.000000
v 0.707107 -0.707107 0.000000
v 0.382684 -0.923880 0.000000
v 0.270598 0.923880 0.270598
v 0.500000 0.707107 0.500000
v 0.653282 0.382683 0.653282
v 0.707107 -0.000000 0.707107
v 0.653282 -0.382683 0.653282
v 0.500000 -0.707107 0.500000
v 0.270598 -0.923880 0.270598
v 0.000000 0.923880 0.382684
v 0.000000 0.707107 0.707107
v 0.000000 0.382683 0.923880
v 0.000000 -0.000000 1.000000
v 0.000000 -0.382683 0.923880
v 0.000000 -0.707107 0.707107
v 0.000000 -0.923880 0.382684
v -0.000000 1.000000 0.000000
v -0.270598 0.923880 0.270598
v -0.500000 0.707107 0.500000
v -0.653281 0.382683 0.653282
v -0.707107 -0.000000 0.707107
v -0.653282 -0.382683 0.653282
v -0.500000 -0.707107 0.500000
v -0.270598 -0.923880 0.270598
v -0.382684 0.923880 0.000000
v -0.707107 0.707107 0.000000
v -0.923879 0.382683 0.000000
v -1.000000 -0.000000 0.000000
v -0.923880 -0.382683 0.000000
v -0.707107 -0.707107 0.000000
v -0.382684 -0.923880 0.000000
v 0.000000 -1.000000 0.000000
v -0.270598 0.923880 -0.270598
v -0.500000 0.707107 -0.500000
v -0.653281 0.382683 -0.653281
v -0.707107 -0.000000 -0.707107
v -0.653282 -0.382683 -0.653281
v -0.500000 -0.707107 -0.500000
v -0.270598 -0.923880 -0.270598
vt 0.750000 0.250000
vt 0.625000 0.125000
vt 0.750000 0.125000
vt 0.750000 0.500000
vt 0.625000 0.375000
vt 0.750000 0.375000
vt 0.750000 0.750000
vt 0.625000 0.625000
vt 0.750000 0.625000
vt 0.750000 0.875000
vt 0.687500 1.000000
vt 0.625000 0.875000
vt 0.687500 0.000000
vt 0.625000 0.250000
vt 0.625000 0.500000
vt 0.625000 0.750000
vt 0.562500 0.000000
vt 0.500000 0.125000
vt 0.500000 0.250000
vt 0.500000 0.500000
vt 0.500000 0.750000
vt 0.500000 0.375000
vt 0.500000 0.625000
vt 0.562500 1.000000
vt 0.500000 0.875000
vt 0.375000 0.500000
vt 0.375000 0.750000
vt 0.375000 0.125000
vt 0.375000 0.375000
vt 0.375000 0.625000
vt 0.437500 1.000000
vt 0.375000 0.875000
vt 0.437500 0.000000
vt 0.375000 0.250000
vt 0.250000 0.125000
vt 0.250000 0.375000
vt 0.250000 0.625000
vt 0.312500 1.000000
vt 0.250000 0.875000
vt 0.312500 0.000000
vt 0.250000 0.250000
vt 0.250000 0.500000
vt 0.250000 0.750000
vt 0.125000 0.625000
vt 0.187500 1.000000
vt 0.125000 0.875000
vt 0.187500 0.000000
vt 0.125000 0.125000
vt 0.125000 0.250000
vt 0.125000 0.500000
vt 0.125000 0.750000
vt 0.125000 0.375000
vt 0.062500 0.000000
vt 0.000000 0.125000
vt 0.000000 0.250000
vt 0.000000 0.500000
vt 0.000000 0.750000
vt 0.000000 0.375000
vt 0.000000 0.625000
vt 0.062500 1.000000
vt 0.000000 0.875000
vt 1.000000 0.875000
vt 0.875000 0.750000
vt 1.000000 0.750000
vt 1.000000 0.250000
vt 0.875000 0.125000
vt 1.000000 0.125000
vt 1.000000 0.500000
vt 0.875000 0.375000
vt 1.000000 0.375000
vt 0.875000 0.625000
vt 1.000000 0.625000
vt 0.937500 1.000000
vt 0.875000 0.875000
vt 0.937500 0.000000
vt 0.875000 0.250000
vt 0.875000 0.500000
vt 0.812500 1.000000
vt 0.812500 0.000000
vn 0.0000 -0.6838 -0.7296
vn 0.2988 -0.9063 -0.2988
vn 0.0000 -0.9063 -0.4226
vn 0.0000 0.0000 -1.0000
vn 0.6578 -0.3668 -0.6578
vn 0.0000 -0.3668 -0.9303
vn 0.0000 0.6838 -0.7296
vn 0.6578 0.3668 -0.6578
vn 0.0000 0.3668 -0.9303
vn 0.0000 0.9063 -0.4226
vn 0.0000 1.0000 0.0000
vn 0.2988 0.9063 -0.2988
vn 0.0000 -1.0000 0.0000
vn 0.5159 -0.6838 -0.5159
vn 0.7071 0.0000 -0.7071
vn 0.5159 0.6838 -0.5159
vn 0.4226 -0.9063 0.0000
vn 0.7296 -0.6838 0.0000
vn 1.0000 0.0000 0.0000
vn 0.7296 0.6838 0.0000
vn 0.9303 -0.3668 0.0000
vn 0.9303 0.3668 0.0000
vn 0.4226 0.9063 0.0000
vn 0.7071 0.0000 0.7071
vn 0.5159 0.6838 0.5159
vn 0.2988 -0.9063 0.2988
vn 0.6578 -0.3668 0.6578
vn 0.6578 0.3668 0.6578
vn 0.2988 0.9063 0.2988
vn 0.5159 -0.6838 0.5159
vn 0.0000 -0.9063 0.4226
vn 0.0000 -0.3668 0.9303
vn 0.0000 0.3668 0.9303
vn 0.0000 0.9063 0.4226
vn 0.0000 -0.6838 0.7296
vn 0.0000 0.0000 1.0000
vn 0.0000 0.6838 0.7296
vn -0.6578 0.3668 0.6578
vn -0.2988 0.9063 0.2988
vn -0.2988 -0.9063 0.2988
vn -0.5159 -0.6838 0.5159
vn -0.7071 0.0000 0.7071
vn -0.5159 0.6838 0.5159
vn -0.6578 -0.3668 0.6578
vn -0.4226 -0.9063 0.0000
vn -0.7296 -0.6838 0.0000
vn -1.0000 0.0000 0.0000
vn -0.7296 0.6838 0.0000
vn -0.9303 -0.3668 0.0000
vn -0.9303 0.3668 0.0000
vn -0.4226 0.9063 0.0000
vn -0.5159 0.6838 -0.5159
vn -0.2988 -0.9063 -0.2988
vn -0.6578 -0.3668 -0.6578
vn -0.6578 0.3668 -0.6578
vn -0.2988 0.9063 -0.2988
vn -0.5159 -0.6838 -0.5159
vn -0.7071 0.0000 -0.7071
s 1
f 6/1/1 14/2/2 7/3/3
f 4/4/4 12/5/5 5/6/6
f 2/7/7 10/8/8 3/9/9
f 1/10/10 36/11/11 8/12/12
f 51/13/13 7/3/3 14/2/2
f 5/6/6 13/14/14 6/1/1
f 3/9/9 11/15/15 4/4/4
f 1/10/10 9/16/16 2/7/7
f 51/17/13 14/2/2 21/18/17
f 12/5/5 20/19/18 13/14/14
f 10/8/8 18/20/19 11/15/15
f 8/12/12 16/21/20 9/16/16
f 13/14/14 21/18/17 14/2/2
f 12/5/5 18/20/19 19/22/21
f 9/16/16 17/23/22 10/8/8
f 8/12/12 36/24/11 15/25/23
f 17/23/22 25/26/24 18/20/19
f 15/25/23 23/27/25 16/21/20
f 20/19/18 28/28/26 21/18/17
f 19/22/21 25/26/24 26/29/27
f 16/21/20 24/30/28 17/23/22
f 15/25/23 36/31/11 22/32/29
f 51/33/13 21/18/17 28/28/26
f 20/19/18 26/29/27 27/34/30
f 27/34/30 35/35/31 28/28/26
f 25/26/24 33/36/32 26/29/27
f 23/27/25 31/37/33 24/30/28
f 22/32/29 36/38/11 29/39/34
f 51/40/13 28/28/26 35/35/31
f 26/29/27 34/41/35 27/34/30
f 24/30/28 32/42/36 25/26/24
f 22/32/29 30/43/37 23/27/25
f 30/43/37 39/44/38 31/37/33
f 29/39/34 36/45/11 37/46/39
f 51/47/13 35/35/31 43/48/40
f 33/36/32 42/49/41 34/41/35
f 31/37/33 40/50/42 32/42/36
f 29/39/34 38/51/43 30/43/37
f 35/35/31 42/49/41 43/48/40
f 32/42/36 41/52/44 33/36/32
f 51/53/13 43/48/40 50/54/45
f 41/52/44 49/55/46 42/49/41
f 39/44/38 47/56/47 40/50/42
f 37/46/39 45/57/48 38/51/43
f 43/48/40 49/55/46 50/54/45
f 41/52/44 47/56/47 48/58/49
f 39/44/38 45/57/48 46/59/50
f 37/46/39 36/60/11 44/61/51
f 44/62/51 53/63/52 45/64/48
f 49/65/46 58/66/53 50/67/45
f 47/68/47 56/69/54 48/70/49
f 45/64/48 54/71/55 46/72/50
f 44/62/51 36/73/11 52/74/56
f 51/75/13 50/67/45 58/66/53
f 48/70/49 57/76/57 49/65/46
f 46/72/50 55/77/58 47/68/47
f 57/76/57 7/3/3 58/66/53
f 55/77/58 5/6/6 56/69/54
f 53/63/52 3/9/9 54/71/55
f 52/74/56 36/78/11 1/10/10
f 51/79/13 58/66/53 7/3/3
f 56/69/54 6/1/1 57/76/57
f 55/77/58 3/9/9 4/4/4
f 53/63/52 1/10/10 2/7/7
f 6/1/1 13/14/14 14/2/2
f 4/4/4 11/15/15 12/5/5
f 2/7/7 9/16/16 10/8/8
f 5/6/6 12/5/5 13/14/14
f 3/9/9 10/8/8 11/15/15
f 1/10/10 8/12/12 9/16/16
f 12/5/5 19/22/21 20/19/18
f 10/8/8 17/23/22 18/20/19
f 8/12/12 15/25/23 16/21/20
f 13/14/14 20/19/18 21/18/17
f 12/5/5 11/15/15 18/20/19
f 9/16/16 16/21/20 17/23/22
f 17/23/22 24/30/28 25/26/24
f 15/25/23 22/32/29 23/27/25
f 20/19/18 27/34/30 28/28/26
f 19/22/21 18/20/19 25/26/24
f 16/21/20 23/27/25 24/30/28
f 20/19/18 19/22/21 26/29/27
f 27/34/30 34/41/35 35/35/31
f 25/26/24 32/42/36 33/36/32
f 23/27/25 30/43/37 31/37/33
f 26/29/27 33/36/32 34/41/35
f 24/30/28 31/37/33 32/42/36
f 22/32/29 29/39/34 30/43/37
f 30/43/37 38/51/43 39/44/38
f 33/36/32 41/52/44 42/49/41
f 31/37/33 39/44/38 40/50/42
f 29/39/34 37/46/39 38/51/43
f 35/35/31 34/41/35 42/49/41
f 32/42/36 40/50/42 41/52/44
f 41/52/44 48/58/49 49/55/46
f 39/44/38 46/59/50 47/56/47
f 37/46/39 44/61/51 45/57/48
f 43/48/40 42/49/41 49/55/46
f 41/52/44 40/50/42 47/56/47
f 39/44/38 38/51/43 45/57/48
f 44/62/51 52/74/56 53/63/52
f 49/65/46 57/76/57 58/66/53
f 47/68/47 55/77/58 56/69/54
f 45/64/48 53/63/52 54/71/55
f 48/70/49 56/69/54 57/76/57
f 46/72/50 54/71/55 55/77/58
f 57/76/57 6/1/1 7/3/3
f 55/77/58 4/4/4 5/6/6
f 53/63/52 2/7/7 3/9/9
f 56/69/54 5/6/6 6/1/1
f 55/77/58 54/71/55 3/9/9
f 53/63/52 52/74/56 1/10/10
