# Blender v2.93.0 OBJ File: ''
# www.blender.org
o Cube
v -0.500000 -0.500000 0.500000
v -0.500000 0.500000 0.500000
v -0.500000 -0.500000 -0.500000
v -0.500000 0.500000 -0.500000
v 0.500000 -0.500000 0.500000
v 0.500000 0.500000 0.500000
v 0.500000 -0.500000 -0.500000
v 0.500000 0.500000 -0.500000
v -0.572933 -0.572933 -0.296650
v -0.609568 -0.609568 -0.000000
v -0.572933 -0.572933 0.296650
v -0.572933 -0.296650 0.572933
v -0.609568 -0.000000 0.609568
v -0.572933 0.296650 0.572933
v -0.572933 0.572933 0.296650
v -0.609568 0.609568 0.000000
v -0.572933 0.572933 -0.296650
v -0.572933 0.296650 -0.572933
v -0.609568 -0.000000 -0.609568
v -0.572933 -0.296650 -0.572933
v 0.296650 -0.572933 -0.572933
v 0.000000 -0.609568 -0.609568
v -0.296650 -0.572933 -0.572933
v -0.296650 0.572933 -0.572933
v -0.000000 0.609568 -0.609568
v 0.296650 0.572933 -0.572933
v 0.572933 0.296650 -0.572933
v 0.609568 -0.000000 -0.609568
v 0.572933 -0.296650 -0.572933
v 0.572933 -0.572933 0.296650
v 0.609568 -0.609568 0.000000
v 0.572933 -0.572933 -0.296650
v 0.572933 0.572933 -0.296650
v 0.609568 0.609568 0.000000
v 0.572933 0.572933 0.296650
v 0.572933 0.296650 0.572933
v 0.609568 -0.000000 0.609568
v 0.572933 -0.296650 0.572933
v -0.296650 -0.572933 0.572933
v -0.000000 -0.609568 0.609568
v 0.296650 -0.572933 0.572933
v 0.296650 0.572933 0.572933
v -0.000000 0.609568 0.609568
v -0.296650 0.572933 0.572933
v -0.728990 -0.316157 0.316157
v -0.781829 -0.000000 0.333140
v -0.728990 0.316157 0.316157
v -0.781829 -0.333140 -0.000000
v -0.839506 0.000000 0.000000
v -0.781829 0.333140 0.000000
v -0.728990 -0.316157 -0.316157
v -0.781829 0.000000 -0.333140
v -0.728990 0.316157 -0.316157
v -0.316157 -0.316157 -0.728990
v -0.333140 -0.000000 -0.781829
v -0.316157 0.316157 -0.728990
v 0.000000 -0.333140 -0.781829
v 0.000000 0.000000 -0.839506
v -0.000000 0.333140 -0.781829
v 0.316157 -0.316157 -0.728990
v 0.333140 0.000000 -0.781829
v 0.316157 0.316157 -0.728990
v 0.728990 -0.316157 -0.316157
v 0.781829 -0.000000 -0.333140
v 0.728990 0.316157 -0.316157
v 0.781829 -0.333140 0.000000
v 0.839506 0.000000 0.000000
v 0.781829 0.333140 -0.000000
v 0.728990 -0.316157 0.316157
v 0.781829 0.000000 0.333140
v 0.728990 0.316157 0.316157
v 0.316157 -0.316157 0.728990
v 0.333140 -0.000000 0.781829
v 0.316157 0.316157 0.728990
v -0.000000 -0.333140 0.781829
v -0.000000 0.000000 0.839506
v 0.000000 0.333140 0.781829
v -0.316157 -0.316157 0.728990
v -0.333140 0.000000 0.781829
v -0.316157 0.316157 0.728990
v -0.316157 -0.728990 -0.316157
v -0.000000 -0.781829 -0.333140
v 0.316157 -0.728990 -0.316157
v -0.333140 -0.781829 0.000000
v 0.000000 -0.839506 0.000000
v 0.333140 -0.781829 -0.000000
v -0.316157 -0.728990 0.316157
v 0.000000 -0.781829 0.333140
v 0.316157 -0.728990 0.316157
v 0.316157 0.728990 -0.316157
v 0.000000 0.781829 -0.333140
v -0.316157 0.728990 -0.316157
v 0.333140 0.781829 0.000000
v -0.000000 0.839506 0.000000
v -0.333140 0.781829 -0.000000
v 0.316157 0.728990 0.316157
v -0.000000 0.781829 0.333140
v -0.316157 0.728990 0.316157
vt 0.437500 0.062500
vt 0.500000 0.125000
vt 0.437500 0.125000
vt 0.562500 0.062500
vt 0.500000 0.062500
vt 0.437500 0.187500
vt 0.562500 0.187500
vt 0.500000 0.187500
vt 0.375000 0.000000
vt 0.375000 0.062500
vt 0.437500 0.000000
vt 0.562500 0.000000
vt 0.500000 0.000000
vt 0.625000 0.000000
vt 0.625000 0.062500
vt 0.562500 0.125000
vt 0.625000 0.187500
vt 0.625000 0.250000
vt 0.562500 0.250000
vt 0.500000 0.250000
vt 0.437500 0.250000
vt 0.375000 0.250000
vt 0.375000 0.187500
vt 0.375000 0.125000
vt 0.437500 0.312500
vt 0.500000 0.375000
vt 0.437500 0.375000
vt 0.562500 0.312500
vt 0.500000 0.312500
vt 0.437500 0.437500
vt 0.562500 0.437500
vt 0.500000 0.437500
vt 0.375000 0.312500
vt 0.625000 0.312500
vt 0.562500 0.375000
vt 0.625000 0.437500
vt 0.625000 0.500000
vt 0.562500 0.500000
vt 0.500000 0.500000
vt 0.437500 0.500000
vt 0.375000 0.500000
vt 0.375000 0.437500
vt 0.375000 0.375000
vt 0.437500 0.562500
vt 0.500000 0.625000
vt 0.437500 0.625000
vt 0.562500 0.562500
vt 0.500000 0.562500
vt 0.437500 0.687500
vt 0.562500 0.687500
vt 0.500000 0.687500
vt 0.375000 0.562500
vt 0.625000 0.562500
vt 0.562500 0.625000
vt 0.625000 0.687500
vt 0.625000 0.750000
vt 0.562500 0.750000
vt 0.500000 0.750000
vt 0.437500 0.750000
vt 0.375000 0.750000
vt 0.375000 0.687500
vt 0.375000 0.625000
vt 0.437500 0.812500
vt 0.500000 0.875000
vt 0.437500 0.875000
vt 0.562500 0.812500
vt 0.500000 0.812500
vt 0.437500 0.937500
vt 0.562500 0.937500
vt 0.500000 0.937500
vt 0.375000 0.812500
vt 0.625000 0.812500
vt 0.562500 0.875000
vt 0.625000 0.937500
vt 0.625000 1.000000
vt 0.562500 1.000000
vt 0.500000 1.000000
vt 0.437500 1.000000
vt 0.375000 1.000000
vt 0.375000 0.937500
vt 0.375000 0.875000
vt 0.187500 0.562500
vt 0.250000 0.625000
vt 0.187500 0.625000
vt 0.312500 0.562500
vt 0.250000 0.562500
vt 0.187500 0.687500
vt 0.312500 0.687500
vt 0.250000 0.687500
vt 0.125000 0.500000
vt 0.125000 0.562500
vt 0.187500 0.500000
vt 0.312500 0.500000
vt 0.250000 0.500000
vt 0.312500 0.625000
vt 0.312500 0.750000
vt 0.250000 0.750000
vt 0.187500 0.750000
vt 0.125000 0.750000
vt 0.125000 0.687500
vt 0.125000 0.625000
vt 0.687500 0.562500
vt 0.750000 0.625000
vt 0.687500 0.625000
vt 0.812500 0.562500
vt 0.750000 0.562500
vt 0.687500 0.687500
vt 0.812500 0.687500
vt 0.750000 0.687500
vt 0.687500 0.500000
vt 0.812500 0.500000
vt 0.750000 0.500000
vt 0.875000 0.500000
vt 0.875000 0.562500
vt 0.812500 0.625000
vt 0.875000 0.687500
vt 0.875000 0.750000
vt 0.812500 0.750000
vt 0.750000 0.750000
vt 0.687500 0.750000
vt 0.625000 0.625000
vt 0.625000 0.125000
vt 0.625000 0.375000
vt 0.625000 0.875000
vt 0.875000 0.625000
vn -0.9708 -0.1681 0.1713
vn -0.9708 0.1713 0.1681
vn -0.9708 -0.1681 -0.1713
vn -0.9708 0.1713 -0.1681
vn -0.7501 -0.4896 0.4446
vn -0.8367 -0.1678 0.5213
vn -0.8367 0.1677 0.5214
vn -0.7501 0.4446 0.4896
vn -0.8367 0.5213 0.1678
vn -0.8367 0.5213 -0.1678
vn -0.7501 0.4446 -0.4896
vn -0.8367 0.1677 -0.5214
vn -0.8367 -0.1678 -0.5213
vn -0.7501 -0.4896 -0.4446
vn -0.8367 -0.5214 -0.1677
vn -0.8367 -0.5214 0.1677
vn -0.1713 -0.1681 -0.9708
vn -0.1681 0.1713 -0.9708
vn 0.1713 -0.1681 -0.9708
vn 0.1681 0.1713 -0.9708
vn -0.4446 -0.4896 -0.7501
vn -0.5213 -0.1678 -0.8367
vn -0.5214 0.1677 -0.8367
vn -0.4896 0.4446 -0.7501
vn -0.1678 0.5213 -0.8367
vn 0.1678 0.5213 -0.8367
vn 0.4896 0.4446 -0.7501
vn 0.5214 0.1677 -0.8367
vn 0.5213 -0.1678 -0.8367
vn 0.4446 -0.4896 -0.7501
vn 0.1677 -0.5214 -0.8367
vn -0.1677 -0.5214 -0.8367
vn 0.9708 -0.1681 -0.1713
vn 0.9708 0.1713 -0.1681
vn 0.9708 -0.1681 0.1713
vn 0.9708 0.1713 0.1681
vn 0.7501 -0.4896 -0.4446
vn 0.8367 -0.1678 -0.5213
vn 0.8367 0.1677 -0.5214
vn 0.7501 0.4446 -0.4896
vn 0.8367 0.5213 -0.1678
vn 0.8367 0.5213 0.1678
vn 0.7501 0.4446 0.4896
vn 0.8367 0.1677 0.5214
vn 0.8367 -0.1678 0.5213
vn 0.7501 -0.4896 0.4446
vn 0.8367 -0.5214 0.1677
vn 0.8367 -0.5214 -0.1677
vn 0.1713 -0.1681 0.9708
vn 0.1681 0.1713 0.9708
vn -0.1713 -0.1681 0.9708
vn -0.1681 0.1713 0.9708
vn 0.4446 -0.4896 0.7501
vn 0.5213 -0.1678 0.8367
vn 0.5214 0.1677 0.8367
vn 0.4896 0.4446 0.7501
vn 0.1678 0.5213 0.8367
vn -0.1678 0.5213 0.8367
vn -0.4896 0.4446 0.7501
vn -0.5214 0.1677 0.8367
vn -0.5213 -0.1678 0.8367
vn -0.4446 -0.4896 0.7501
vn -0.1677 -0.5214 0.8367
vn 0.1677 -0.5214 0.8367
vn -0.1681 -0.9708 -0.1713
vn 0.1713 -0.9708 -0.1681
vn -0.1681 -0.9708 0.1713
vn 0.1713 -0.9708 0.1681
vn -0.4896 -0.7501 -0.4446
vn -0.1678 -0.8367 -0.5213
vn 0.1677 -0.8367 -0.5214
vn 0.4446 -0.7501 -0.4896
vn 0.5213 -0.8367 -0.1678
vn 0.5213 -0.8367 0.1678
vn 0.4446 -0.7501 0.4896
vn 0.1677 -0.8367 0.5214
vn -0.1678 -0.8367 0.5213
vn -0.4896 -0.7501 0.4446
vn -0.5214 -0.8367 0.1677
vn -0.5214 -0.8367 -0.1677
vn 0.1681 0.9708 -0.1713
vn -0.1713 0.9708 -0.1681
vn 0.1681 0.9708 0.1713
vn -0.1713 0.9708 0.1681
vn 0.4896 0.7501 -0.4446
vn 0.1678 0.8367 -0.5213
vn -0.1677 0.8367 -0.5214
vn -0.4446 0.7501 -0.4896
vn -0.5213 0.8367 -0.1678
vn -0.5213 0.8367 0.1678
vn -0.4446 0.7501 0.4896
vn -0.1677 0.8367 0.5214
vn 0.1678 0.8367 0.5213
vn 0.4896 0.7501 0.4446
vn 0.5214 0.8367 0.1677
vn 0.5214 0.8367 -0.1677
vn -0.9708 -0.1713 0.1681
vn -0.9708 0.1681 0.1713
vn -0.9708 -0.1713 -0.1681
vn -0.9708 0.1681 -0.1713
vn -0.7501 -0.4446 0.4896
vn -0.8367 -0.1677 0.5214
vn -0.8367 0.1678 0.5213
vn -0.7501 0.4896 0.4446
vn -0.8367 0.5214 0.1677
vn -0.8367 0.5214 -0.1677
vn -0.7501 0.4896 -0.4446
vn -0.8367 0.1678 -0.5213
vn -0.8367 -0.1677 -0.5214
vn -0.7501 -0.4446 -0.4896
vn -0.8367 -0.5213 -0.1678
vn -0.8367 -0.5213 0.1678
vn -0.1681 -0.1713 -0.9708
vn -0.1713 0.1681 -0.9708
vn 0.1681 -0.1713 -0.9708
vn 0.1713 0.1681 -0.9708
vn -0.4896 -0.4446 -0.7501
vn -0.5214 -0.1677 -0.8367
vn -0.5213 0.1678 -0.8367
vn -0.4446 0.4896 -0.7501
vn -0.1677 0.5214 -0.8367
vn 0.1677 0.5214 -0.8367
vn 0.4446 0.4896 -0.7501
vn 0.5213 0.1678 -0.8367
vn 0.5214 -0.1677 -0.8367
vn 0.4896 -0.4446 -0.7501
vn 0.1678 -0.5213 -0.8367
vn -0.1678 -0.5213 -0.8367
vn 0.9708 -0.1713 -0.1681
vn 0.9708 0.1681 -0.1713
vn 0.9708 -0.1713 0.1681
vn 0.9708 0.1681 0.1713
vn 0.7501 -0.4446 -0.4896
vn 0.8367 -0.1677 -0.5214
vn 0.8367 0.1678 -0.5213
vn 0.7501 0.4896 -0.4446
vn 0.8367 0.5214 -0.1677
vn 0.8367 0.5214 0.1677
vn 0.7501 0.4896 0.4446
vn 0.8367 0.1678 0.5213
vn 0.8367 -0.1677 0.5214
vn 0.7501 -0.4446 0.4896
vn 0.8367 -0.5213 0.1678
vn 0.8367 -0.5213 -0.1678
vn 0.1681 -0.1713 0.9708
vn 0.1713 0.1681 0.9708
vn -0.1681 -0.1713 0.9708
vn -0.1713 0.1681 0.9708
vn 0.4896 -0.4446 0.7501
vn 0.5214 -0.1677 0.8367
vn 0.5213 0.1678 0.8367
vn 0.4446 0.4896 0.7501
vn 0.1677 0.5214 0.8367
vn -0.1677 0.5214 0.8367
vn -0.4446 0.4896 0.7501
vn -0.5213 0.1678 0.8367
vn -0.5214 -0.1677 0.8367
vn -0.4896 -0.4446 0.7501
vn -0.1678 -0.5213 0.8367
vn 0.1678 -0.5213 0.8367
vn -0.1713 -0.9708 -0.1681
vn 0.1681 -0.9708 -0.1713
vn -0.1713 -0.9708 0.1681
vn 0.1681 -0.9708 0.1713
vn -0.4446 -0.7501 -0.4896
vn -0.1677 -0.8367 -0.5214
vn 0.1678 -0.8367 -0.5213
vn 0.4896 -0.7501 -0.4446
vn 0.5214 -0.8367 -0.1677
vn 0.5214 -0.8367 0.1677
vn 0.4896 -0.7501 0.4446
vn 0.1678 -0.8367 0.5213
vn -0.1677 -0.8367 0.5214
vn -0.4446 -0.7501 0.4896
vn -0.5213 -0.8367 0.1678
vn -0.5213 -0.8367 -0.1678
vn 0.1713 0.9708 -0.1681
vn -0.1681 0.9708 -0.1713
vn 0.1713 0.9708 0.1681
vn -0.1681 0.9708 0.1713
vn 0.4446 0.7501 -0.4896
vn 0.1677 0.8367 -0.5214
vn -0.1678 0.8367 -0.5213
vn -0.4896 0.7501 -0.4446
vn -0.5214 0.8367 -0.1677
vn -0.5214 0.8367 0.1677
vn -0.4896 0.7501 0.4446
vn -0.1678 0.8367 0.5213
vn 0.1677 0.8367 0.5214
vn 0.4446 0.7501 0.4896
vn 0.5213 0.8367 0.1678
vn 0.5213 0.8367 -0.1678
s off
f 45/1/1 49/2/1 48/3/1
f 47/4/2 49/2/2 46/5/2
f 49/2/3 51/6/3 48/3/3
f 49/2/4 53/7/4 52/8/4
f 1/9/5 45/1/5 11/10/5
f 12/11/6 46/5/6 45/1/6
f 14/12/7 46/5/7 13/13/7
f 2/14/8 47/4/8 14/12/8
f 15/15/9 50/16/9 47/4/9
f 50/16/10 17/17/10 53/7/10
f 53/7/11 4/18/11 18/19/11
f 52/8/12 18/19/12 19/20/12
f 52/8/13 20/21/13 51/6/13
f 51/6/14 3/22/14 9/23/14
f 48/3/15 9/23/15 10/24/15
f 11/10/16 48/3/16 10/24/16
f 54/25/17 58/26/17 57/27/17
f 56/28/18 58/26/18 55/29/18
f 58/26/19 60/30/19 57/27/19
f 58/26/20 62/31/20 61/32/20
f 3/22/21 54/25/21 23/33/21
f 20/21/22 55/29/22 54/25/22
f 18/19/23 55/29/23 19/20/23
f 4/18/24 56/28/24 18/19/24
f 24/34/25 59/35/25 56/28/25
f 59/35/26 26/36/26 62/31/26
f 62/31/27 8/37/27 27/38/27
f 61/32/28 27/38/28 28/39/28
f 61/32/29 29/40/29 60/30/29
f 60/30/30 7/41/30 21/42/30
f 57/27/31 21/42/31 22/43/31
f 23/33/32 57/27/32 22/43/32
f 63/44/33 67/45/33 66/46/33
f 65/47/34 67/45/34 64/48/34
f 67/45/35 69/49/35 66/46/35
f 67/45/36 71/50/36 70/51/36
f 7/41/37 63/44/37 32/52/37
f 29/40/38 64/48/38 63/44/38
f 27/38/39 64/48/39 28/39/39
f 8/37/40 65/47/40 27/38/40
f 33/53/41 68/54/41 65/47/41
f 68/54/42 35/55/42 71/50/42
f 71/50/43 6/56/43 36/57/43
f 70/51/44 36/57/44 37/58/44
f 70/51/45 38/59/45 69/49/45
f 69/49/46 5/60/46 30/61/46
f 66/46/47 30/61/47 31/62/47
f 32/52/48 66/46/48 31/62/48
f 72/63/49 76/64/49 75/65/49
f 74/66/50 76/64/50 73/67/50
f 76/64/51 78/68/51 75/65/51
f 76/64/52 80/69/52 79/70/52
f 5/60/53 72/63/53 41/71/53
f 38/59/54 73/67/54 72/63/54
f 36/57/55 73/67/55 37/58/55
f 6/56/56 74/66/56 36/57/56
f 42/72/57 77/73/57 74/66/57
f 77/73/58 44/74/58 80/69/58
f 80/69/59 2/75/59 14/76/59
f 79/70/60 14/76/60 13/77/60
f 79/70/61 12/78/61 78/68/61
f 78/68/62 1/79/62 39/80/62
f 75/65/63 39/80/63 40/81/63
f 41/71/64 75/65/64 40/81/64
f 81/82/65 85/83/65 84/84/65
f 83/85/66 85/83/66 82/86/66
f 85/83/67 87/87/67 84/84/67
f 85/83/68 89/88/68 88/89/68
f 3/90/69 81/82/69 9/91/69
f 23/92/70 82/86/70 81/82/70
f 21/93/71 82/86/71 22/94/71
f 7/41/72 83/85/72 21/93/72
f 32/52/73 86/95/73 83/85/73
f 86/95/74 30/61/74 89/88/74
f 89/88/75 5/60/75 41/96/75
f 88/89/76 41/96/76 40/97/76
f 88/89/77 39/98/77 87/87/77
f 87/87/78 1/99/78 11/100/78
f 84/84/79 11/100/79 10/101/79
f 9/91/80 84/84/80 10/101/80
f 90/102/81 94/103/81 93/104/81
f 92/105/82 94/103/82 91/106/82
f 94/103/83 96/107/83 93/104/83
f 94/103/84 98/108/84 97/109/84
f 8/37/85 90/102/85 33/53/85
f 26/110/86 91/106/86 90/102/86
f 24/111/87 91/106/87 25/112/87
f 4/113/88 92/105/88 24/111/88
f 17/114/89 95/115/89 92/105/89
f 95/115/90 15/116/90 98/108/90
f 98/108/91 2/117/91 44/118/91
f 97/109/92 44/118/92 43/119/92
f 97/109/93 42/120/93 96/107/93
f 96/107/94 6/56/94 35/55/94
f 93/104/95 35/55/95 34/121/95
f 33/53/96 93/104/96 34/121/96
f 45/1/97 46/5/97 49/2/97
f 47/4/98 50/16/98 49/2/98
f 49/2/99 52/8/99 51/6/99
f 49/2/100 50/16/100 53/7/100
f 1/9/101 12/11/101 45/1/101
f 12/11/102 13/13/102 46/5/102
f 14/12/103 47/4/103 46/5/103
f 2/14/104 15/15/104 47/4/104
f 15/15/105 16/122/105 50/16/105
f 50/16/106 16/122/106 17/17/106
f 53/7/107 17/17/107 4/18/107
f 52/8/108 53/7/108 18/19/108
f 52/8/109 19/20/109 20/21/109
f 51/6/110 20/21/110 3/22/110
f 48/3/111 51/6/111 9/23/111
f 11/10/112 45/1/112 48/3/112
f 54/25/113 55/29/113 58/26/113
f 56/28/114 59/35/114 58/26/114
f 58/26/115 61/32/115 60/30/115
f 58/26/116 59/35/116 62/31/116
f 3/22/117 20/21/117 54/25/117
f 20/21/118 19/20/118 55/29/118
f 18/19/119 56/28/119 55/29/119
f 4/18/120 24/34/120 56/28/120
f 24/34/121 25/123/121 59/35/121
f 59/35/122 25/123/122 26/36/122
f 62/31/123 26/36/123 8/37/123
f 61/32/124 62/31/124 27/38/124
f 61/32/125 28/39/125 29/40/125
f 60/30/126 29/40/126 7/41/126
f 57/27/127 60/30/127 21/42/127
f 23/33/128 54/25/128 57/27/128
f 63/44/129 64/48/129 67/45/129
f 65/47/130 68/54/130 67/45/130
f 67/45/131 70/51/131 69/49/131
f 67/45/132 68/54/132 71/50/132
f 7/41/133 29/40/133 63/44/133
f 29/40/134 28/39/134 64/48/134
f 27/38/135 65/47/135 64/48/135
f 8/37/136 33/53/136 65/47/136
f 33/53/137 34/121/137 68/54/137
f 68/54/138 34/121/138 35/55/138
f 71/50/139 35/55/139 6/56/139
f 70/51/140 71/50/140 36/57/140
f 70/51/141 37/58/141 38/59/141
f 69/49/142 38/59/142 5/60/142
f 66/46/143 69/49/143 30/61/143
f 32/52/144 63/44/144 66/46/144
f 72/63/145 73/67/145 76/64/145
f 74/66/146 77/73/146 76/64/146
f 76/64/147 79/70/147 78/68/147
f 76/64/148 77/73/148 80/69/148
f 5/60/149 38/59/149 72/63/149
f 38/59/150 37/58/150 73/67/150
f 36/57/151 74/66/151 73/67/151
f 6/56/152 42/72/152 74/66/152
f 42/72/153 43/124/153 77/73/153
f 77/73/154 43/124/154 44/74/154
f 80/69/155 44/74/155 2/75/155
f 79/70/156 80/69/156 14/76/156
f 79/70/157 13/77/157 12/78/157
f 78/68/158 12/78/158 1/79/158
f 75/65/159 78/68/159 39/80/159
f 41/71/160 72/63/160 75/65/160
f 81/82/161 82/86/161 85/83/161
f 83/85/162 86/95/162 85/83/162
f 85/83/163 88/89/163 87/87/163
f 85/83/164 86/95/164 89/88/164
f 3/90/165 23/92/165 81/82/165
f 23/92/166 22/94/166 82/86/166
f 21/93/167 83/85/167 82/86/167
f 7/41/168 32/52/168 83/85/168
f 32/52/169 31/62/169 86/95/169
f 86/95/170 31/62/170 30/61/170
f 89/88/171 30/61/171 5/60/171
f 88/89/172 89/88/172 41/96/172
f 88/89/173 40/97/173 39/98/173
f 87/87/174 39/98/174 1/99/174
f 84/84/175 87/87/175 11/100/175
f 9/91/176 81/82/176 84/84/176
f 90/102/177 91/106/177 94/103/177
f 92/105/178 95/115/178 94/103/178
f 94/103/179 97/109/179 96/107/179
f 94/103/180 95/115/180 98/108/180
f 8/37/181 26/110/181 90/102/181
f 26/110/182 25/112/182 91/106/182
f 24/111/183 92/105/183 91/106/183
f 4/113/184 17/114/184 92/105/184
f 17/114/185 16/125/185 95/115/185
f 95/115/186 16/125/186 15/116/186
f 98/108/187 15/116/187 2/117/187
f 97/109/188 98/108/188 44/118/188
f 97/109/189 43/119/189 42/120/189
f 96/107/190 42/120/190 6/56/190
f 93/104/191 96/107/191 35/55/191
f 33/53/192 90/102/192 93/104/192
